<?xml version="1.0" encoding="UTF-8"?>
<svg id="Layer_1" data-name="Layer 1" xmlns="http://www.w3.org/2000/svg" viewBox="0 0 1775.16 219.03">
  <defs>
    <style>
      .cls-1 {
        fill: #5cb874;
      }

      .cls-2 {
        fill: #b5b5b5;
      }
    </style>
  </defs>
  <g>
    <path class="cls-1" d="m83.04,125.37v-39.75h73.3v81.45c-14.03,11.9-26.44,20-37.22,24.3-10.79,4.3-23.58,6.45-38.38,6.45-18.22,0-33.07-3.87-44.56-11.6-11.48-7.73-20.38-19.24-26.7-34.53C3.16,136.41,0,118.86,0,99.05c0-20.85,3.46-38.99,10.37-54.41,6.91-15.42,17.03-27.13,30.37-35.12C51.13,3.35,65.13.27,82.72.27s29.65,1.91,38.06,5.73c8.41,3.82,15.39,9.75,20.94,17.79,5.55,8.04,9.72,18.22,12.51,30.56l-45.76,10.16c-1.88-7.21-5.08-12.73-9.58-16.55-4.5-3.82-10.25-5.73-17.22-5.73-10.4,0-18.69,4.5-24.87,13.49-6.18,8.99-9.27,23.22-9.27,42.68,0,20.68,3.12,35.45,9.37,44.31,6.25,8.86,14.96,13.29,26.13,13.29,5.3,0,10.37-.96,15.18-2.87,4.82-1.91,10.33-5.17,16.55-9.77v-17.98h-31.73Z"/>
    <path class="cls-1" d="m184.4,3.53h127.12v40.79h-79.58v30.36h73.82v38.97h-73.82v37.66h81.89v43.27h-129.43V3.53Z"/>
    <path class="cls-1" d="m441.58,116.38l41.57,15.64c-2.79,14.51-7.19,26.63-13.19,36.36-6,9.73-13.45,17.07-22.36,22.02-8.9,4.95-20.23,7.43-33.98,7.43-16.69,0-30.31-3.02-40.89-9.05-10.58-6.03-19.7-16.65-27.38-31.84-7.68-15.2-11.52-34.64-11.52-58.35,0-31.6,6.75-55.89,20.26-72.87C367.6,8.75,386.71.27,411.42.27c19.34,0,34.54,4.87,45.6,14.6,11.06,9.73,19.28,24.67,24.66,44.83l-41.89,11.6c-1.47-5.82-3-10.08-4.61-12.77-2.65-4.52-5.9-7.99-9.74-10.43-3.84-2.43-8.13-3.65-12.88-3.65-10.75,0-18.99,5.38-24.71,16.14-4.33,7.99-6.49,20.53-6.49,37.62,0,21.17,2.58,35.69,7.75,43.54,5.17,7.85,12.42,11.78,21.78,11.78s15.93-3.17,20.58-9.51c4.64-6.34,8.01-15.55,10.1-27.63Z"/>
  </g>
  <g>
    <path class="cls-2" d="m538.85,197.69v-72.56h9.6v64h35.74v8.56h-45.34Z"/>
    <path class="cls-2" d="m628.79,191.21c-3.3,2.81-6.48,4.79-9.53,5.94-3.05,1.16-6.33,1.73-9.82,1.73-5.77,0-10.21-1.41-13.31-4.23-3.1-2.82-4.65-6.43-4.65-10.81,0-2.57.59-4.92,1.76-7.05,1.17-2.13,2.71-3.84,4.6-5.12,1.9-1.29,4.03-2.26,6.41-2.92,1.75-.46,4.39-.91,7.92-1.34,7.19-.86,12.49-1.88,15.89-3.07.03-1.22.05-2,.05-2.33,0-3.63-.84-6.19-2.52-7.67-2.28-2.01-5.66-3.02-10.15-3.02-4.19,0-7.28.74-9.28,2.2-2,1.47-3.47,4.07-4.43,7.79l-8.71-1.19c.79-3.73,2.09-6.74,3.91-9.03,1.81-2.29,4.44-4.06,7.87-5.3,3.43-1.24,7.41-1.86,11.93-1.86s8.13.53,10.94,1.58c2.8,1.06,4.87,2.38,6.19,3.98,1.32,1.6,2.24,3.62,2.77,6.06.3,1.52.45,4.26.45,8.22v11.88c0,8.28.19,13.52.57,15.71.38,2.19,1.13,4.3,2.25,6.31h-9.31c-.92-1.85-1.52-4.01-1.78-6.48Zm-.74-19.9c-3.23,1.32-8.08,2.44-14.55,3.37-3.66.53-6.25,1.12-7.77,1.78-1.52.66-2.69,1.62-3.51,2.9-.83,1.27-1.24,2.68-1.24,4.23,0,2.38.9,4.36,2.7,5.94,1.8,1.58,4.43,2.38,7.89,2.38s6.48-.75,9.16-2.25c2.67-1.5,4.64-3.56,5.89-6.16.96-2.01,1.44-4.98,1.44-8.91v-3.27Z"/>
    <path class="cls-2" d="m659.08,197.69h-8.27v-72.56h8.91v25.89c3.76-4.72,8.56-7.08,14.4-7.08,3.23,0,6.29.65,9.18,1.96,2.89,1.3,5.26,3.13,7.13,5.49,1.86,2.36,3.32,5.21,4.38,8.54,1.06,3.33,1.58,6.9,1.58,10.69,0,9.01-2.23,15.97-6.68,20.89s-9.8,7.37-16.04,7.37-11.07-2.59-14.6-7.77v6.58Zm-.1-26.68c0,6.3.86,10.86,2.57,13.66,2.8,4.59,6.6,6.88,11.38,6.88,3.89,0,7.26-1.69,10.1-5.07,2.84-3.38,4.26-8.42,4.26-15.12s-1.36-11.93-4.08-15.2c-2.72-3.27-6.01-4.9-9.87-4.9s-7.26,1.69-10.1,5.07c-2.84,3.38-4.26,8.27-4.26,14.67Z"/>
    <path class="cls-2" d="m703.92,171.41c0-9.73,2.71-16.94,8.12-21.63,4.52-3.89,10.03-5.84,16.53-5.84,7.23,0,13.13,2.37,17.72,7.1s6.88,11.28,6.88,19.62c0,6.76-1.02,12.08-3.04,15.96-2.03,3.88-4.98,6.89-8.86,9.03-3.88,2.14-8.11,3.22-12.7,3.22-7.36,0-13.31-2.36-17.84-7.08-4.54-4.72-6.81-11.52-6.81-20.39Zm9.16,0c0,6.73,1.47,11.77,4.41,15.12,2.94,3.35,6.63,5.02,11.09,5.02s8.1-1.68,11.04-5.05c2.94-3.37,4.41-8.5,4.41-15.39,0-6.5-1.48-11.42-4.43-14.77-2.95-3.35-6.62-5.02-11.01-5.02s-8.15,1.67-11.09,5c-2.94,3.33-4.41,8.37-4.41,15.1Z"/>
    <path class="cls-2" d="m763.52,197.69v-52.56h8.02v7.97c2.05-3.73,3.94-6.19,5.67-7.38,1.73-1.19,3.64-1.78,5.72-1.78,3,0,6.05.96,9.16,2.87l-3.07,8.27c-2.18-1.29-4.36-1.93-6.53-1.93-1.95,0-3.7.59-5.25,1.76-1.55,1.17-2.66,2.8-3.32,4.88-.99,3.17-1.48,6.63-1.48,10.39v27.52h-8.91Z"/>
    <path class="cls-2" d="m831.67,191.21c-3.3,2.81-6.48,4.79-9.53,5.94-3.05,1.16-6.33,1.73-9.82,1.73-5.77,0-10.21-1.41-13.31-4.23-3.1-2.82-4.65-6.43-4.65-10.81,0-2.57.59-4.92,1.76-7.05,1.17-2.13,2.71-3.84,4.6-5.12,1.9-1.29,4.03-2.26,6.41-2.92,1.75-.46,4.39-.91,7.92-1.34,7.19-.86,12.49-1.88,15.89-3.07.03-1.22.05-2,.05-2.33,0-3.63-.84-6.19-2.52-7.67-2.28-2.01-5.66-3.02-10.15-3.02-4.19,0-7.28.74-9.28,2.2-2,1.47-3.47,4.07-4.43,7.79l-8.71-1.19c.79-3.73,2.09-6.74,3.91-9.03,1.81-2.29,4.44-4.06,7.87-5.3,3.43-1.24,7.41-1.86,11.93-1.86s8.13.53,10.94,1.58c2.8,1.06,4.87,2.38,6.19,3.98,1.32,1.6,2.24,3.62,2.77,6.06.3,1.52.45,4.26.45,8.22v11.88c0,8.28.19,13.52.57,15.71.38,2.19,1.13,4.3,2.25,6.31h-9.31c-.92-1.85-1.52-4.01-1.78-6.48Zm-.74-19.9c-3.23,1.32-8.08,2.44-14.55,3.37-3.66.53-6.25,1.12-7.77,1.78-1.52.66-2.69,1.62-3.51,2.9-.83,1.27-1.24,2.68-1.24,4.23,0,2.38.9,4.36,2.7,5.94,1.8,1.58,4.43,2.38,7.89,2.38s6.48-.75,9.16-2.25c2.67-1.5,4.64-3.56,5.89-6.16.96-2.01,1.44-4.98,1.44-8.91v-3.27Z"/>
    <path class="cls-2" d="m873.2,189.72l1.29,7.87c-2.51.53-4.75.79-6.73.79-3.23,0-5.74-.51-7.52-1.54-1.78-1.02-3.04-2.37-3.76-4.03-.73-1.67-1.09-5.17-1.09-10.52v-30.24h-6.53v-6.93h6.53v-13.02l8.86-5.35v18.36h8.96v6.93h-8.96v30.74c0,2.54.16,4.17.47,4.9.31.73.82,1.3,1.53,1.73.71.43,1.72.64,3.04.64.99,0,2.29-.12,3.91-.35Z"/>
    <path class="cls-2" d="m878.59,171.41c0-9.73,2.71-16.94,8.12-21.63,4.52-3.89,10.03-5.84,16.53-5.84,7.23,0,13.13,2.37,17.72,7.1,4.59,4.74,6.88,11.28,6.88,19.62,0,6.76-1.01,12.08-3.04,15.96-2.03,3.88-4.98,6.89-8.86,9.03s-8.11,3.22-12.7,3.22c-7.36,0-13.31-2.36-17.84-7.08s-6.8-11.52-6.8-20.39Zm9.16,0c0,6.73,1.47,11.77,4.41,15.12,2.94,3.35,6.63,5.02,11.09,5.02s8.1-1.68,11.04-5.05c2.94-3.37,4.41-8.5,4.41-15.39,0-6.5-1.48-11.42-4.43-14.77-2.95-3.35-6.62-5.02-11.01-5.02s-8.15,1.67-11.09,5c-2.94,3.33-4.41,8.37-4.41,15.1Z"/>
    <path class="cls-2" d="m938.19,197.69v-52.56h8.02v7.97c2.04-3.73,3.93-6.19,5.67-7.38,1.73-1.19,3.64-1.78,5.72-1.78,3,0,6.05.96,9.16,2.87l-3.07,8.27c-2.18-1.29-4.36-1.93-6.53-1.93-1.95,0-3.7.59-5.25,1.76-1.55,1.17-2.66,2.8-3.32,4.88-.99,3.17-1.49,6.63-1.49,10.39v27.52h-8.91Z"/>
    <path class="cls-2" d="m971.65,217.94l-.99-8.37c1.95.53,3.65.79,5.1.79,1.98,0,3.56-.33,4.75-.99,1.19-.66,2.16-1.58,2.92-2.77.56-.89,1.47-3.1,2.72-6.63.17-.49.43-1.22.79-2.18l-19.95-52.66h9.6l10.94,30.44c1.42,3.86,2.69,7.92,3.81,12.18,1.02-4.09,2.24-8.08,3.66-11.98l11.24-30.64h8.91l-20,53.46c-2.15,5.77-3.81,9.75-5,11.93-1.58,2.94-3.4,5.09-5.45,6.46s-4.49,2.05-7.33,2.05c-1.72,0-3.63-.36-5.74-1.09Z"/>
  </g>
  <g>
    <path d="m572.56,47.12v-12.23h31.58v28.91c-3.07,2.97-7.52,5.58-13.34,7.84-5.82,2.26-11.72,3.39-17.69,3.39-7.59,0-14.21-1.59-19.85-4.78-5.64-3.18-9.88-7.74-12.72-13.66-2.84-5.92-4.26-12.37-4.26-19.33,0-7.56,1.58-14.27,4.75-20.15,3.17-5.87,7.8-10.38,13.91-13.51,4.65-2.41,10.44-3.61,17.37-3.61,9.01,0,16.04,1.89,21.11,5.67,5.06,3.78,8.32,9,9.78,15.67l-14.55,2.72c-1.02-3.56-2.95-6.38-5.77-8.44-2.82-2.06-6.34-3.09-10.57-3.09-6.4,0-11.49,2.03-15.27,6.09-3.78,4.06-5.67,10.08-5.67,18.07,0,8.61,1.91,15.07,5.74,19.38,3.83,4.31,8.84,6.46,15.05,6.46,3.07,0,6.15-.6,9.23-1.81,3.08-1.2,5.73-2.66,7.94-4.38v-9.21h-16.78Z"/>
    <path d="m630.87,73.8h-13.91V21.23h12.92v7.47c2.21-3.53,4.2-5.86,5.96-6.98,1.77-1.12,3.77-1.68,6.01-1.68,3.17,0,6.22.87,9.16,2.62l-4.31,12.13c-2.34-1.52-4.52-2.28-6.53-2.28s-3.6.54-4.95,1.61c-1.35,1.07-2.42,3.01-3.19,5.82-.78,2.8-1.16,8.68-1.16,17.62v16.23Z"/>
    <path d="m687.44,57.07l13.86,2.33c-1.78,5.08-4.6,8.95-8.44,11.61-3.84,2.66-8.65,3.98-14.43,3.98-9.14,0-15.91-2.99-20.29-8.96-3.46-4.78-5.2-10.82-5.2-18.12,0-8.71,2.28-15.53,6.83-20.47,4.55-4.93,10.31-7.4,17.27-7.4,7.82,0,13.99,2.58,18.51,7.75,4.52,5.16,6.68,13.08,6.48,23.73h-34.84c.1,4.12,1.22,7.33,3.37,9.63,2.14,2.29,4.82,3.44,8.02,3.44,2.18,0,4.01-.59,5.49-1.78,1.48-1.19,2.61-3.1,3.37-5.74Zm.79-14.06c-.1-4.03-1.14-7.09-3.12-9.18-1.98-2.1-4.39-3.14-7.23-3.14-3.04,0-5.54,1.11-7.52,3.32-1.98,2.21-2.95,5.21-2.92,9.01h20.79Z"/>
    <path d="m743.82,57.07l13.86,2.33c-1.78,5.08-4.6,8.95-8.44,11.61-3.84,2.66-8.65,3.98-14.43,3.98-9.14,0-15.91-2.99-20.29-8.96-3.46-4.78-5.2-10.82-5.2-18.12,0-8.71,2.28-15.53,6.83-20.47,4.55-4.93,10.31-7.4,17.27-7.4,7.82,0,13.99,2.58,18.51,7.75,4.52,5.16,6.68,13.08,6.48,23.73h-34.84c.1,4.12,1.22,7.33,3.37,9.63,2.14,2.29,4.82,3.44,8.02,3.44,2.18,0,4.01-.59,5.49-1.78,1.48-1.19,2.61-3.1,3.37-5.74Zm.79-14.06c-.1-4.03-1.14-7.09-3.12-9.18-1.98-2.1-4.39-3.14-7.23-3.14-3.04,0-5.54,1.11-7.52,3.32-1.98,2.21-2.95,5.21-2.92,9.01h20.79Z"/>
    <path d="m817.56,73.8h-13.91v-26.83c0-5.68-.3-9.35-.89-11.01-.59-1.67-1.56-2.96-2.9-3.89-1.34-.92-2.94-1.39-4.83-1.39-2.41,0-4.57.66-6.48,1.98-1.91,1.32-3.23,3.07-3.94,5.25-.71,2.18-1.06,6.2-1.06,12.08v23.81h-13.91V21.23h12.92v7.72c4.59-5.94,10.36-8.91,17.32-8.91,3.07,0,5.87.55,8.41,1.66,2.54,1.11,4.46,2.52,5.77,4.23,1.3,1.72,2.21,3.66,2.72,5.84.51,2.18.77,5.3.77,9.35v32.67Z"/>
    <path d="m859.93,73.8V1.24h53.8v12.28h-39.15v16.09h36.43v12.23h-36.43v19.75h40.54v12.23h-55.19Z"/>
    <path d="m975.26,73.8h-13.91v-26.83c0-5.68-.3-9.35-.89-11.01-.59-1.67-1.56-2.96-2.9-3.89-1.34-.92-2.95-1.39-4.83-1.39-2.41,0-4.57.66-6.48,1.98-1.91,1.32-3.23,3.07-3.93,5.25-.71,2.18-1.06,6.2-1.06,12.08v23.81h-13.91V21.23h12.92v7.72c4.59-5.94,10.36-8.91,17.32-8.91,3.07,0,5.87.55,8.41,1.66,2.54,1.11,4.46,2.52,5.77,4.23,1.3,1.72,2.21,3.66,2.72,5.84s.77,5.3.77,9.35v32.67Z"/>
    <path d="m1019.8,57.07l13.86,2.33c-1.78,5.08-4.59,8.95-8.44,11.61-3.84,2.66-8.65,3.98-14.43,3.98-9.14,0-15.91-2.99-20.29-8.96-3.46-4.78-5.2-10.82-5.2-18.12,0-8.71,2.28-15.53,6.83-20.47,4.55-4.93,10.31-7.4,17.27-7.4,7.82,0,13.99,2.58,18.51,7.75,4.52,5.16,6.68,13.08,6.48,23.73h-34.85c.1,4.12,1.22,7.33,3.37,9.63,2.14,2.29,4.82,3.44,8.02,3.44,2.18,0,4.01-.59,5.49-1.78,1.49-1.19,2.61-3.1,3.37-5.74Zm.79-14.06c-.1-4.03-1.14-7.09-3.12-9.18-1.98-2.1-4.39-3.14-7.23-3.14-3.04,0-5.54,1.11-7.52,3.32-1.98,2.21-2.95,5.21-2.92,9.01h20.79Z"/>
    <path d="m1059.05,73.8h-13.91V21.23h12.92v7.47c2.21-3.53,4.2-5.86,5.96-6.98,1.76-1.12,3.77-1.68,6.01-1.68,3.17,0,6.22.87,9.16,2.62l-4.31,12.13c-2.34-1.52-4.52-2.28-6.53-2.28s-3.6.54-4.95,1.61c-1.35,1.07-2.42,3.01-3.19,5.82-.78,2.8-1.16,8.68-1.16,17.62v16.23Z"/>
    <path d="m1083.9,77.26l15.89,1.93c.26,1.85.87,3.12,1.83,3.81,1.32.99,3.4,1.49,6.24,1.49,3.63,0,6.35-.54,8.17-1.63,1.22-.73,2.14-1.9,2.77-3.51.43-1.16.64-3.28.64-6.39v-7.67c-4.16,5.68-9.4,8.51-15.74,8.51-7.06,0-12.65-2.99-16.78-8.96-3.23-4.72-4.85-10.59-4.85-17.62,0-8.81,2.12-15.54,6.36-20.19,4.24-4.65,9.51-6.98,15.81-6.98s11.86,2.85,16.09,8.56v-7.38h13.02v47.17c0,6.2-.51,10.84-1.53,13.91-1.02,3.07-2.46,5.48-4.31,7.23-1.85,1.75-4.31,3.12-7.4,4.11-3.09.99-6.99,1.49-11.71,1.49-8.91,0-15.23-1.53-18.96-4.58s-5.59-6.92-5.59-11.61c0-.46.02-1.02.05-1.68Zm12.42-30.84c0,5.58,1.08,9.66,3.24,12.25,2.16,2.59,4.83,3.89,7.99,3.89,3.4,0,6.27-1.33,8.61-3.98,2.34-2.66,3.51-6.59,3.51-11.81s-1.12-9.49-3.37-12.13c-2.25-2.64-5.08-3.96-8.51-3.96s-6.08,1.3-8.24,3.89c-2.16,2.59-3.24,6.54-3.24,11.85Z"/>
    <path d="m1140.53,21.23h14.8l12.57,37.32,12.27-37.32h14.4l-18.56,50.58-3.32,9.16c-1.22,3.07-2.38,5.41-3.49,7.03-1.11,1.62-2.38,2.93-3.81,3.94-1.44,1.01-3.2,1.79-5.3,2.35-2.1.56-4.46.84-7.1.84s-5.3-.28-7.87-.84l-1.24-10.89c2.18.43,4.14.64,5.89.64,3.23,0,5.63-.95,7.18-2.85,1.55-1.9,2.74-4.31,3.56-7.25l-20-52.71Z"/>
    <path d="m1278.17,47.12l14.21,4.5c-2.18,7.92-5.8,13.8-10.86,17.65-5.07,3.84-11.49,5.77-19.28,5.77-9.64,0-17.55-3.29-23.76-9.87-6.2-6.58-9.31-15.58-9.31-27,0-12.08,3.12-21.46,9.36-28.14,6.24-6.68,14.44-10.02,24.6-10.02,8.88,0,16.09,2.62,21.63,7.87,3.3,3.1,5.77,7.56,7.42,13.36l-14.5,3.46c-.86-3.76-2.65-6.73-5.37-8.91-2.72-2.18-6.03-3.27-9.92-3.27-5.38,0-9.74,1.93-13.09,5.79-3.35,3.86-5.02,10.11-5.02,18.76,0,9.17,1.65,15.71,4.95,19.6,3.3,3.89,7.59,5.84,12.87,5.84,3.89,0,7.24-1.24,10.05-3.71,2.8-2.48,4.82-6.37,6.04-11.68Z"/>
    <path d="m1301.63,46.77c0-4.62,1.14-9.09,3.42-13.41,2.28-4.32,5.5-7.62,9.68-9.9,4.17-2.28,8.83-3.42,13.98-3.42,7.95,0,14.47,2.58,19.55,7.75,5.08,5.16,7.62,11.69,7.62,19.58s-2.57,14.54-7.7,19.77c-5.13,5.23-11.59,7.84-19.38,7.84-4.82,0-9.41-1.09-13.78-3.27-4.37-2.18-7.7-5.37-9.97-9.58-2.28-4.21-3.42-9.33-3.42-15.37Zm14.25.74c0,5.21,1.24,9.21,3.71,11.98s5.53,4.16,9.16,4.16,6.67-1.39,9.13-4.16c2.46-2.77,3.69-6.8,3.69-12.08s-1.23-9.11-3.69-11.88c-2.46-2.77-5.5-4.16-9.13-4.16s-6.68,1.39-9.16,4.16-3.71,6.76-3.71,11.98Z"/>
    <path d="m1414.58,73.8h-13.91v-26.83c0-5.68-.3-9.35-.89-11.01-.59-1.67-1.56-2.96-2.9-3.89-1.34-.92-2.95-1.39-4.83-1.39-2.41,0-4.57.66-6.48,1.98-1.91,1.32-3.23,3.07-3.93,5.25-.71,2.18-1.06,6.2-1.06,12.08v23.81h-13.91V21.23h12.92v7.72c4.59-5.94,10.36-8.91,17.32-8.91,3.07,0,5.87.55,8.41,1.66,2.54,1.11,4.46,2.52,5.77,4.23,1.3,1.72,2.21,3.66,2.72,5.84s.77,5.3.77,9.35v32.67Z"/>
    <path d="m1443.14,73.8l-21.18-52.56h14.6l9.9,26.83,2.87,8.96c.76-2.28,1.24-3.78,1.43-4.5.46-1.48.96-2.97,1.49-4.45l10-26.83h14.3l-20.89,52.56h-12.52Z"/>
    <path d="m1515.5,57.07l13.86,2.33c-1.78,5.08-4.59,8.95-8.44,11.61-3.84,2.66-8.65,3.98-14.43,3.98-9.14,0-15.91-2.99-20.29-8.96-3.46-4.78-5.2-10.82-5.2-18.12,0-8.71,2.28-15.53,6.83-20.47,4.55-4.93,10.31-7.4,17.27-7.4,7.82,0,13.99,2.58,18.51,7.75,4.52,5.16,6.68,13.08,6.48,23.73h-34.85c.1,4.12,1.22,7.33,3.37,9.63,2.14,2.29,4.82,3.44,8.02,3.44,2.18,0,4.01-.59,5.49-1.78,1.49-1.19,2.61-3.1,3.37-5.74Zm.79-14.06c-.1-4.03-1.14-7.09-3.12-9.18-1.98-2.1-4.39-3.14-7.23-3.14-3.04,0-5.54,1.11-7.52,3.32-1.98,2.21-2.95,5.21-2.92,9.01h20.79Z"/>
    <path d="m1554.75,73.8h-13.91V21.23h12.92v7.47c2.21-3.53,4.2-5.86,5.96-6.98,1.76-1.12,3.77-1.68,6.01-1.68,3.17,0,6.22.87,9.16,2.62l-4.31,12.13c-2.34-1.52-4.52-2.28-6.53-2.28s-3.6.54-4.95,1.61c-1.35,1.07-2.42,3.01-3.19,5.82-.78,2.8-1.16,8.68-1.16,17.62v16.23Z"/>
    <path d="m1575.99,58.8l13.96-2.13c.59,2.71,1.8,4.76,3.61,6.16,1.81,1.4,4.36,2.1,7.62,2.1,3.6,0,6.3-.66,8.12-1.98,1.22-.92,1.83-2.16,1.83-3.71,0-1.06-.33-1.93-.99-2.62-.69-.66-2.25-1.27-4.65-1.83-11.22-2.47-18.33-4.73-21.33-6.78-4.16-2.84-6.24-6.78-6.24-11.83,0-4.55,1.8-8.38,5.4-11.48,3.6-3.1,9.17-4.65,16.73-4.65s12.54,1.17,16.04,3.51c3.5,2.34,5.91,5.81,7.23,10.39l-13.12,2.43c-.56-2.05-1.62-3.61-3.19-4.7s-3.8-1.63-6.71-1.63c-3.66,0-6.29.51-7.87,1.53-1.06.73-1.58,1.67-1.58,2.82,0,.99.46,1.83,1.39,2.52,1.25.92,5.58,2.23,12.99,3.91,7.41,1.68,12.58,3.75,15.52,6.19,2.9,2.48,4.36,5.92,4.36,10.34,0,4.82-2.01,8.96-6.04,12.42-4.03,3.46-9.98,5.2-17.87,5.2-7.16,0-12.83-1.45-17-4.36-4.17-2.9-6.9-6.85-8.19-11.83Z"/>
    <path d="m1637.26,14.11V1.24h13.91v12.87h-13.91Zm0,59.69V21.23h13.91v52.56h-13.91Z"/>
    <path d="m1662.21,46.77c0-4.62,1.14-9.09,3.42-13.41,2.28-4.32,5.5-7.62,9.68-9.9,4.17-2.28,8.83-3.42,13.98-3.42,7.95,0,14.47,2.58,19.55,7.75,5.08,5.16,7.62,11.69,7.62,19.58s-2.57,14.54-7.7,19.77c-5.13,5.23-11.59,7.84-19.38,7.84-4.82,0-9.41-1.09-13.78-3.27-4.37-2.18-7.7-5.37-9.97-9.58-2.28-4.21-3.42-9.33-3.42-15.37Zm14.25.74c0,5.21,1.24,9.21,3.71,11.98s5.53,4.16,9.16,4.16,6.67-1.39,9.13-4.16c2.46-2.77,3.69-6.8,3.69-12.08s-1.23-9.11-3.69-11.88c-2.46-2.77-5.5-4.16-9.13-4.16s-6.68,1.39-9.16,4.16-3.71,6.76-3.71,11.98Z"/>
    <path d="m1775.16,73.8h-13.91v-26.83c0-5.68-.3-9.35-.89-11.01-.59-1.67-1.56-2.96-2.9-3.89-1.34-.92-2.95-1.39-4.83-1.39-2.41,0-4.57.66-6.48,1.98-1.91,1.32-3.23,3.07-3.93,5.25-.71,2.18-1.06,6.2-1.06,12.08v23.81h-13.91V21.23h12.92v7.72c4.59-5.94,10.36-8.91,17.32-8.91,3.07,0,5.87.55,8.41,1.66,2.54,1.11,4.46,2.52,5.77,4.23,1.3,1.72,2.21,3.66,2.72,5.84s.77,5.3.77,9.35v32.67Z"/>
  </g>
</svg>